<svg width="512" height="512" viewBox="0 0 512 512" fill="#49240f" xmlns="http://www.w3.org/2000/svg">
  <path
    d="m493.174 74.377h-13.336l-4-22.931a138.646 138.646 0 0 0 -4.7-18.144c-2.7-7.944-6.777-17.063-14.316-17.063h-.272l-224.85 20.404c-9.392.127-17.239 6.313-18.719 14.8l-4 22.931h-12.215a8.009 8.009 0 0 0 -8 8v28.528a8.009 8.009 0 0 0 8 8h13.749l3.809 44.562h-11.282a7.649 7.649 0 0 0 -7.621 8.214l.246 3.527a151.985 151.985 0 0 0 -33.514-3.748c-83.442 0-151.327 67.884-151.327 151.326s67.885 151.33 151.327 151.33a151.229 151.229 0 0 0 69.647-16.959l.384 6.841c.8 18.11 10.425 31.766 22.388 31.766h180.783c11.958 0 21.586-13.655 22.393-31.7l6.983-124.422h10.936a7.628 7.628 0 0 0 7.621-7.1l11.229-160.839a7.649 7.649 0 0 0 -7.62-8.242h-11.281l3.808-44.562h13.75a8.009 8.009 0 0 0 8-8v-28.519a8.009 8.009 0 0 0 -8-8zm-268.374-20.871c.483-2.773 3.574-4.865 7.19-4.865h.272l223.538-20.284c2.69 3.333 6.626 16 8.221 25.149l3.638 20.871h-246.495zm-18.149 279.136a7.609 7.609 0 0 0 7.617 7 54.806 54.806 0 1 1 -10.81-52.766zm-44.5-149.182a139.786 139.786 0 0 1 34.388 4.284l1.774 25.424a5.98 5.98 0 0 0 -5.847 10l4.843 4.842a5.931 5.931 0 0 0 2.135 1.363l2.794 40.054a66.738 66.738 0 1 0 23.214 74.59l2.991 53.3a77.4 77.4 0 0 0 -14.182 12.316 42.238 42.238 0 0 0 -4.976 7.336c-4.378 7.437-9.826 16.692-22.446 20.775-46.274 14.97-55.971-5.641-64.525-23.827-.9-1.912-1.749-3.719-2.632-5.46-8.751-17.249-19.561-24.143-33.248-32.87-1.945-1.241-3.972-2.533-6.088-3.915-27.619-18.033-35.985-41.255-24.867-69.024 9.382-23.434 5.909-39.564 1.345-48.97a41.612 41.612 0 0 0 -8.23-11.535 139.255 139.255 0 0 1 113.559-58.683zm0 278.653c-76.825 0-139.327-62.5-139.327-139.327a138.457 138.457 0 0 1 19.062-70.268c5.391 6.357 12.527 20.506 2.453 45.669-7.957 19.873-7.511 38.251 1.324 54.623 5.833 10.808 15.294 20.534 28.122 28.91 2.155 1.407 4.218 2.722 6.2 3.985 13.086 8.344 21.732 13.857 29 28.18.8 1.582 1.615 3.31 2.475 5.139 6.658 14.155 16.824 35.771 47.924 35.771 8.643 0 18.9-1.67 31.154-5.633 16.956-5.488 24.26-17.895 29.093-26.106a37.525 37.525 0 0 1 3.406-5.233 86.028 86.028 0 0 1 6.222-6.06l1.8 32.129a139.138 139.138 0 0 1 -68.906 18.221zm283.611 1.349c-.585 13.071-6.526 20.3-10.409 20.3h-180.777c-4.5 0-9.871-8.335-10.4-20.367l-6.945-123.75h215.482zm25.838-135.818h-253.269l-10.618-152.177h274.513zm-8.03-164.177h-237.2l-3.809-44.562h244.819zm25.6-56.562h-288.404v-20.528h288.408z"
  />
  <path
    d="m344.97 311.094c12.155 0 23.423-6.678 31.729-18.8 7.83-11.432 12.142-26.522 12.142-42.489s-4.312-31.056-12.142-42.488c-8.306-12.126-19.574-18.8-31.729-18.8s-23.424 6.679-31.729 18.8c-7.83 11.432-12.142 26.522-12.142 42.488s4.312 31.057 12.142 42.489c8.305 12.122 19.573 18.8 31.729 18.8zm0-110.586c17.276 0 31.871 22.574 31.871 49.293s-14.6 49.293-31.871 49.293-31.87-22.573-31.87-49.294 14.594-49.292 31.87-49.292z"
  />
  <path
    d="m74.659 237.621a5.98 5.98 0 0 0 4.3-1.818l10.966-11.278a6 6 0 0 0 -8.6-8.365l-10.968 11.278a6 6 0 0 0 4.3 10.183z"
  />
  <path d="m121.894 244.9h14.339a6 6 0 0 0 0-12h-14.339a6 6 0 0 0 0 12z" />
  <path
    d="m140.451 206.943h18.724a6 6 0 0 0 0-12h-18.724a6 6 0 0 0 0 12z"
  />
  <path
    d="m74.556 282.693-3.8 9.688a6 6 0 1 0 11.173 4.376l3.8-9.687a6 6 0 1 0 -11.173-4.377z"
  />
  <path
    d="m179.418 417.823h12.622a6 6 0 0 0 0-12h-12.622a6 6 0 0 0 0 12z"
  />
  <path
    d="m134.142 407.818a6 6 0 0 0 8.485-8.486l-8.251-8.251a6 6 0 0 0 -8.485 8.486z"
  />
  <path
    d="m70.751 347.4 12.008 4.3a6 6 0 0 0 4.041-11.3l-12-4.3a6 6 0 1 0 -4.045 11.3z"
  />
</svg>
