<svg width="512" height="512" viewBox="0 0 60 60" fill="#49240f" xmlns="http://www.w3.org/2000/svg">
  <path
    id="Shape"
    d="m57.587 39.7-2.387-.479c-.3145334-.0630683-.5797153-.2732055-.713-.565l-3.936-8.656h3.449c1.1045695 0 2-.8954305 2-2v-1c0-1.6568542-1.3431458-3-3-3h-14.154c1.4146599-2.4284966 2.1580633-5.1895121 2.154-8 0-8.836556-7.163444-16-16-16s-16 7.163444-16 16c-.00406335 2.8104879.73934008 5.5715034 2.154 8h-8.154c-1.65685425 0-3 1.3431458-3 3v25c0 1.6568542 1.34314575 3 3 3h1.09c.18929366 1.1171965.69215661 2.1576026 1.45 3h-4.54c-.55228475 0-1 .4477153-1 1s.44771525 1 1 1h58c.5522847 0 1-.4477153 1-1s-.4477153-1-1-1h-4.54c.7578434-.8423974 1.2607063-1.8828035 1.45-3h1.09c1.6568542 0 3-1.3431458 3-3v-9.36c-.0052292-1.4282704-1.01317-2.6563459-2.413-2.94zm-5.587-1.7h-10v-4h8.174zm-27-36c7.7285595.00826732 13.9917327 6.27144053 14 14 0 .317-.017.632-.037.945-.3508514.4427433-.753753.8416159-1.2 1.188-1.516 1.149-3.048 1.018-4.553-.393-.6663888-.6560359-1.4082373-1.2307167-2.21-1.712v-.028c-.0108474-2.8933416-2.085017-5.3668266-4.932194-5.8817312-2.8471769-.51490452-5.6562819 1.075453-6.679806 3.7817312-.146-.1-.287-.206-.44-.294-1.05312-.5846143-2.324431-.6218962-3.41-.1-.6367497.3460288-1.2113043.7958713-1.7 1.331-.885.871-1.308 1.208-1.9 1.028-.3428192-.1166835-.6532416-.3126677-.906-.572.3787804-7.44108755 6.5172848-13.2829503 13.968-13.293zm4 14c0 2.209139-1.790861 4-4 4s-4-1.790861-4-4 1.790861-4 4-4 4 1.790861 4 4zm-17.89 1.679c.3578241.1589866.7454555.2397857 1.137.237 1.1804265-.1273903 2.2607619-.7219348 3-1.651.3363642-.3735859.7266758-.6948009 1.158-.953.4911818-.2393139 1.0671208-.229653 1.55.026.3699933.2284193.7217146.4851892 1.052.768.0473414 2.8721977 2.1257248 5.3070042 4.9548866 5.8046028 2.8291617.4975986 5.6135937-1.0819262 6.6381134-3.7656028.4359177.3266081.8519883.678899 1.246 1.055 1.0282096 1.0436352 2.4195716 1.6501172 3.884 1.693.9374544-.0136529 1.8533895-.2830049 2.649-.779-.4261138 1.3871313-1.0679729 2.6985216-1.902 3.886h-22.954c-1.316015-1.8743245-2.1452338-4.0465135-2.413-6.321zm-9.11 34.321v-25c0-.5522847.44771525-1 1-1h50c.5522847 0 1 .4477153 1 1v1h-15c-1.6568542 0-3 1.3431458-3 3v22h-20.09c-.4853307-2.8857455-2.9837271-4.9990438-5.91-4.9990438-2.92627287 0-5.42466925 2.1132983-5.91 4.9990438h-1.09c-.55228475 0-1-.4477153-1-1zm42.09 3c.1892937 1.1171965.6921566 2.1576026 1.45 3h-31.08c.7578434-.8423974 1.2607063-1.8828035 1.45-3zm-38.09-1c0-2.209139 1.790861-4 4-4s4 1.790861 4 4-1.790861 4-4 4c-1.06086596 0-2.07828161-.4214274-2.82842712-1.1715729-.75014552-.7501455-1.17157288-1.7675611-1.17157288-2.8284271zm40 0c0-2.209139 1.790861-4 4-4s4 1.790861 4 4-1.790861 4-4 4-4-1.790861-4-4zm11-1h-1.09c-.4853307-2.8857455-2.9837271-4.9990438-5.91-4.9990438s-5.4246693 2.1132983-5.91 4.9990438h-6.09v-22c0-.5522847.4477153-1 1-1h8.71c.3914991-.0002487.7471364.2279844.91.584l.644 1.416h-7.264c-1.1045695 0-2 .8954305-2 2v5c0 .5522847.4477153 1 1 1h11.981c.4388558.6056632 1.0871679 1.0265848 1.819 1.181l2.389.479c.4673643.0942045.8046165.503248.808.98v.36h-.997c-1.6568542 0-3 1.3431458-3 3s1.3431458 3 3 3h1v3c0 .5522847-.4477153 1-1 1zm1-6h-1c-.5522847 0-1-.4477153-1-1s.4477153-1 1-1h1z"
  />
  <path
    id="Shape"
    d="m10 51c-1.65685425 0-3 1.3431458-3 3s1.34314575 3 3 3c1.6568542 0 3-1.3431458 3-3s-1.3431458-3-3-3zm0 4c-.55228475 0-1-.4477153-1-1s.44771525-1 1-1c.5522847 0 1 .4477153 1 1s-.4477153 1-1 1z"
  />
  <path
    id="Shape"
    d="m50 51c-1.6568542 0-3 1.3431458-3 3s1.3431458 3 3 3 3-1.3431458 3-3-1.3431458-3-3-3zm0 4c-.5522847 0-1-.4477153-1-1s.4477153-1 1-1 1 .4477153 1 1-.4477153 1-1 1z"
  />
  <path
    id="Shape"
    d="m46 42h-2c-.5522847 0-1 .4477153-1 1s.4477153 1 1 1h2c.5522847 0 1-.4477153 1-1s-.4477153-1-1-1z"
  />
  <path
    id="Shape"
    d="m7 46h24c1.1045695 0 2-.8954305 2-2v-2c0-1.1045695-.8954305-2-2-2v-6c0-1.6568542-1.3431458-3-3-3h-18c-1.65685425 0-3 1.3431458-3 3v6c-1.1045695 0-2 .8954305-2 2v2c0 1.1045695.8954305 2 2 2zm2-12c0-.5522847.44771525-1 1-1h18c.5522847 0 1 .4477153 1 1v6h-12v-2c0-.5522847-.4477153-1-1-1s-1 .4477153-1 1v2h-2v-2c0-.5522847-.4477153-1-1-1s-1 .4477153-1 1v2h-2zm-2 8h24v2h-24z"
  />
  <path
    id="Shape"
    d="m15.293 11.707c.3923789.3789722 1.0160848.3735524 1.4018186-.0121814s.3911536-1.0094397.0121814-1.4018186l-1-1c-.3923789-.37897221-1.0160848-.37355237-1.4018186.01218142-.3857338.3857338-.3911536 1.00943968-.0121814 1.40181858z"
  />
  <path
    id="Shape"
    d="m33.293 14.707c.3904999.3903819 1.0235001.3903819 1.414 0l1-1c.3789722-.3923789.3735524-1.0160848-.0121814-1.4018186s-1.0094397-.3911536-1.4018186-.0121814l-1 1c-.3903819.3904999-.3903819 1.0235001 0 1.414z"
  />
  <path
    id="Shape"
    d="m25.293 7.707c.3923789.37897221 1.0160848.37355237 1.4018186-.01218142.3857338-.3857338.3911536-1.00943969.0121814-1.40181858l-1-1c-.3923789-.37897221-1.0160848-.37355237-1.4018186.01218142-.3857338.3857338-.3911536 1.00943969-.0121814 1.40181858z"
  />
  <path
    id="Shape"
    d="m19 9c.2651948-.00005664.5195073-.10545063.707-.293l1-1c.2599566-.25107447.3642126-.62287789.2726972-.97250732-.0915155-.34962944-.3645604-.6226744-.7141899-.71418984-.3496294-.09151544-.7214328.01274058-.9725073.27269716l-1 1c-.2859079.28599425-.3714219.71603662-.216678 1.08965456s.5192821.61725909.923678.61734544z"
  />
  <path
    id="Shape"
    d="m31 9c.2651948-.00005664.5195073-.10545063.707-.293l1-1c.2599566-.25107447.3642126-.62287789.2726972-.97250732-.0915155-.34962944-.3645604-.6226744-.7141899-.71418984-.3496294-.09151544-.7214328.01274058-.9725073.27269716l-1 1c-.2859079.28599425-.3714219.71603662-.216678 1.08965456s.5192821.61725909.923678.61734544z"
  />
</svg>
