<svg width="512" height="512" viewBox="0 0 512 512" fill="#49240f" xmlns="http://www.w3.org/2000/svg">
  <path
    d="M264,224a71.9,71.9,0,0,0,56-26.793V216a8,8,0,0,0,8,8,72.081,72.081,0,0,0,72-72,104,104,0,0,0-208,0A72.081,72.081,0,0,0,264,224Zm32-112H280a8,8,0,0,0-8,8v32a8,8,0,0,0,8,8h6.629A24,24,0,0,1,240,152a56,56,0,0,1,112,0,24.039,24.039,0,0,1-20,23.666A71.691,71.691,0,0,0,336,152,40.045,40.045,0,0,0,296,112Zm0-48a88.1,88.1,0,0,1,88,88,56.087,56.087,0,0,1-48,55.43V191.2A40.071,40.071,0,0,0,368,152a72,72,0,0,0-144,0,40,40,0,0,0,80,0,8,8,0,0,0-8-8h-8V128h8a24.028,24.028,0,0,1,24,24,56,56,0,0,1-112,0A88.1,88.1,0,0,1,296,64Z"
  />
  <path
    d="M360,256a135.226,135.226,0,0,0-75.974,23.251A133.985,133.985,0,0,0,275.964,256H328A104.118,104.118,0,0,0,432,152c0-74.991-61.01-136-136-136S160,77.009,160,152a103.887,103.887,0,0,0,2.908,24.442C159.28,176.153,155.637,176,152,176A136,136,0,0,0,16,312,104.118,104.118,0,0,0,120,416h64a104.086,104.086,0,0,0,41.158-8.487A104.161,104.161,0,0,0,328,496h64A104.118,104.118,0,0,0,496,392C496,317.009,434.99,256,360,256ZM152,272H136a8,8,0,0,0-8,8v32a8,8,0,0,0,8,8h6.629A24,24,0,0,1,96,312a56,56,0,0,1,112,0,24.039,24.039,0,0,1-20,23.666A71.691,71.691,0,0,0,192,312,40.045,40.045,0,0,0,152,272Zm40,79.2A40.07,40.07,0,0,0,224,312a72,72,0,0,0-144,0,40,40,0,0,0,80,0,8,8,0,0,0-8-8h-8V288h8a24.028,24.028,0,0,1,24,24,56,56,0,0,1-112,0,88,88,0,0,1,176,0,56.087,56.087,0,0,1-48,55.43Zm63.745-46.423a103.366,103.366,0,0,0-18.493-52.266,103.52,103.52,0,0,0,20.8,3.319A118.338,118.338,0,0,1,270,290.135,137.126,137.126,0,0,0,255.745,304.773ZM296,32A120.136,120.136,0,0,1,416,152a88.1,88.1,0,0,1-88,88H264a88.1,88.1,0,0,1-88-88A120.136,120.136,0,0,1,296,32ZM120,400a88.1,88.1,0,0,1-88-88A120,120,0,0,1,152,192a121.2,121.2,0,0,1,16.493,1.145,103.976,103.976,0,0,0,10.255,18.348A104.018,104.018,0,0,0,48,312a71.974,71.974,0,0,0,128,45.207V376a8,8,0,0,0,8,8,71.584,71.584,0,0,0,41.68-13.346,136.235,136.235,0,0,0-1.659,19.723A87.926,87.926,0,0,1,184,400Zm272,80H328a88.1,88.1,0,0,1-88-88,120,120,0,0,1,240,0A88.1,88.1,0,0,1,392,480Z"
  />
  <path
    d="M360,288A104.118,104.118,0,0,0,256,392a71.974,71.974,0,0,0,128,45.207V456a8,8,0,0,0,8,8,72.081,72.081,0,0,0,72-72A104.118,104.118,0,0,0,360,288Zm0,64H344a8,8,0,0,0-8,8v32a8,8,0,0,0,8,8h6.629A24,24,0,0,1,304,392a56,56,0,0,1,112,0,24.039,24.039,0,0,1-20,23.666A71.691,71.691,0,0,0,400,392,40.045,40.045,0,0,0,360,352Zm40,95.43V431.2A40.07,40.07,0,0,0,432,392a72,72,0,0,0-144,0,40,40,0,0,0,80,0,8,8,0,0,0-8-8h-8V368h8a24.028,24.028,0,0,1,24,24,56,56,0,0,1-112,0,88,88,0,0,1,176,0A56.087,56.087,0,0,1,400,447.43Z"
  />
</svg>
